HIERARCHY
ROOT Hips
{
	OFFSET 0.00000 0.00000 0.00000
	CHANNELS 6 Xposition Yposition Zposition Zrotation Yrotation Xrotation 
	JOINT LHipJoint
	{
		OFFSET 0 0 0
		CHANNELS 3 Zrotation Yrotation Xrotation
		JOINT LeftHip
		{
			OFFSET 1.74857 -1.85566 0.69197
			CHANNELS 3 Zrotation Yrotation Xrotation
			JOINT LeftKnee
			{
				OFFSET 2.40003 -6.59403 0.00000
				CHANNELS 3 Zrotation Yrotation Xrotation
				JOINT LeftAnkle
				{
					OFFSET 2.82169 -7.75254 0.00000
					CHANNELS 3 Zrotation Yrotation Xrotation
					JOINT LeftToe
					{
						OFFSET 0.16466 -0.45240 2.26890
						CHANNELS 3 Zrotation Yrotation Xrotation
						End Site
						{
							OFFSET 0.00000 -0.00000 1.16486
						}
					}
				}
			}
		}
	}
	JOINT RHipJoint
	{
		OFFSET 0 0 0
		CHANNELS 3 Zrotation Yrotation Xrotation
		JOINT RightHip
		{
			OFFSET -1.64169 -1.85566 0.69197
			CHANNELS 3 Zrotation Yrotation Xrotation
			JOINT RightKnee
			{
				OFFSET -2.41814 -6.64379 0.00000
				CHANNELS 3 Zrotation Yrotation Xrotation
				JOINT RightAnkle
				{
					OFFSET -2.80588 -7.70911 0.00000
					CHANNELS 3 Zrotation Yrotation Xrotation
					JOINT RightToe
					{
						OFFSET -0.19098 -0.52472 2.25401
						CHANNELS 3 Zrotation Yrotation Xrotation
						End Site
						{
							OFFSET -0.00000 -0.00000 1.16333
						}
					}
				}
			}
		}
	}
	JOINT lowerback
	{
		OFFSET 0 0 0
		CHANNELS 3 Zrotation Yrotation Xrotation
		JOINT Chest
		{
			OFFSET -0.02828 2.14690 -0.11061
			CHANNELS 3 Zrotation Yrotation Xrotation
			JOINT Chest2
			{
				OFFSET -0.00167 2.15299 0.00759
				CHANNELS 3 Zrotation Yrotation Xrotation
				JOINT lowerneck
				{
					OFFSET 0 0 0
					CHANNELS 3 Zrotation Yrotation Xrotation
					JOINT Neck
					{
						OFFSET -0.09296 1.90118 0.07197
						CHANNELS 3 Zrotation Yrotation Xrotation
						JOINT Head
						{
							OFFSET 0.08490 1.89526 -0.24604
							CHANNELS 3 Zrotation Yrotation Xrotation
							End Site
							{
								OFFSET 0.03186 1.92109 -0.09483
							}
						}
					}
				}
				JOINT LeftCollar
				{
					OFFSET 0 0 0
					CHANNELS 3 Zrotation Yrotation Xrotation
					JOINT LeftShoulder
					{
						OFFSET 3.21569 1.44644 -0.03720
CHANNELS 3 Zrotation Xrotation Yrotation
						JOINT LeftElbow
						{
OFFSET 0 -5.476510 -0.000000
CHANNELS 3 Zrotation Xrotation Yrotation
							JOINT LeftWrist
							{
OFFSET 0 -3.090580 -0.000000
CHANNELS 3 Zrotation Xrotation Yrotation
								JOINT lhand
								{
									OFFSET 0 0 0
CHANNELS 3 Zrotation Xrotation Yrotation
									JOINT LFingers
									{
OFFSET 0 -0.771610 -0.000000
CHANNELS 3 Zrotation Xrotation Yrotation
										End Site
										{
OFFSET 0 -0.622090 -0.000000
										}
									}
								}
								JOINT LThumb
								{
OFFSET 0 0.000000 0.000000
CHANNELS 3 Zrotation Xrotation Yrotation
									End Site
									{
OFFSET 0 -0.631590 0.631590
									}
								}
							}
						}
					}
				}
				JOINT RightCollar
				{
					OFFSET 0 0 0
					CHANNELS 3 Zrotation Yrotation Xrotation
					JOINT RightShoulder
					{
						OFFSET -3.38693 1.28904 -0.07093
CHANNELS 3 Zrotation Xrotation Yrotation
						JOINT RightElbow
						{
OFFSET 0 -5.141820 -0.000000
CHANNELS 3 Zrotation Xrotation Yrotation
							JOINT RightWrist
							{
OFFSET 0 -3.355650 -0.000000
CHANNELS 3 Zrotation Xrotation Yrotation
								JOINT rhand
								{
									OFFSET 0 0 0
CHANNELS 3 Zrotation Xrotation Yrotation
									JOINT RFingers
									{
OFFSET 0 -0.801040 -0.000000
CHANNELS 3 Zrotation Xrotation Yrotation
										End Site
										{
OFFSET 0 -0.645820 -0.000000
										}
									}
								}
								JOINT RThumb
								{
OFFSET 0 0.000000 0.000000
CHANNELS 3 Zrotation Xrotation Yrotation
									End Site
									{
OFFSET 0 -0.655680 0.655680
									}
								}
							}
						}
					}
				}
			}
		}
	}
}
MOTION
Frames: 11
Frame Time: 0.008333333333333333
-0.349301 18.066209 -2.011015 1.144027 0.651624 -0.606438 0.000000 0.000000 0.000000 -19.819269 -2.806196 -3.201027 1.097467 6.657005 18.703119 0.651185 5.939899 -18.550849 0.506434 -4.561842 -12.662976 0.000000 0.000000 0.000000 18.111246 5.297257 -4.945217 -1.303328 -7.232022 20.404749 -0.341561 -9.191450 -17.955117 -0.269801 3.341464 -9.230932 0.220417 2.093762 5.982407 0.114509 2.799604 2.381748 -0.191320 1.399103 -0.894922 -6.437415 -4.205343 -0.061357 4.542589 -5.742891 6.264909 2.464887 -2.906882 2.370966 0.000000 0.000000 0.000000 28.470709 -40.426635 -39.486190 114.607338 -57.579926 81.137056 35.302513 29.260147 -21.959589 0.000000 0.000000 0.000000 -7.125000 0.000000 0.000000 7.167647 56.128240 -1.963283 0.000000 0.000000 0.000000 -29.158233 -39.567547 31.987936 -109.719293 -58.475270 -76.989723 -42.908940 0.511247 -23.203308 0.000000 0.000000 0.000000 7.125000 0.000000 0.000000 -8.280114 -0.081137 -8.379762
-0.358473 18.018545 -2.077763 1.355515 0.713883 -1.237860 0.000000 0.000000 0.000000 -20.048646 -2.904768 -3.700297 1.305386 7.237689 20.421457 0.721105 5.582033 -19.026265 0.484773 -4.463750 -12.385305 0.000000 0.000000 0.000000 17.838876 4.965219 -5.671408 -1.540335 -7.834467 22.212471 -0.435362 -8.549623 -18.396079 -0.278277 3.392820 -9.374384 0.186882 2.132039 7.307118 0.166673 2.848779 3.176780 -0.156889 1.423822 -0.814778 -6.705742 -4.200971 0.380116 4.518878 -5.780211 7.443624 2.510481 -2.942863 2.698352 0.000000 0.000000 0.000000 22.166804 -35.057267 -45.060658 98.925030 -59.691126 67.720980 28.010417 22.424642 -25.908485 0.000000 0.000000 0.000000 -7.125000 0.000000 0.000000 -2.074535 58.788545 0.695821 0.000000 0.000000 0.000000 -21.470509 -33.796307 37.241538 -91.920797 -59.977961 -61.663198 -37.660727 1.657164 -21.886514 0.000000 0.000000 0.000000 7.125000 0.000000 0.000000 -5.442235 3.175493 -5.159333
-0.368481 17.971253 -2.168090 1.262228 0.658011 -1.499992 0.000000 0.000000 0.000000 -19.804689 -2.748345 -5.056080 1.572038 7.910969 22.444089 0.785051 4.903577 -19.219079 0.500951 -4.537328 -12.593448 0.000000 0.000000 0.000000 17.867230 4.852190 -6.921734 -1.801214 -8.439162 24.056140 -0.524703 -7.890514 -18.777403 -0.252225 3.231659 -8.924443 0.272049 2.201481 8.073774 0.366608 2.946197 4.279641 -0.010348 1.474431 -0.105497 -6.821320 -4.426832 0.084174 4.446473 -6.057767 7.616671 2.492118 -3.082352 2.831610 0.000000 0.000000 0.000000 20.100043 -32.655259 -47.331055 89.885837 -59.999891 59.901090 25.126470 16.753260 -27.781757 0.000000 0.000000 0.000000 -7.125000 0.000000 0.000000 -6.163914 60.069355 2.271501 0.000000 0.000000 0.000000 -19.003424 -30.949846 39.638345 -79.663110 -59.592322 -51.060262 -34.056638 1.099037 -17.873383 0.000000 0.000000 0.000000 7.125000 0.000000 0.000000 -3.895434 8.751935 -3.265146
-0.378208 17.945562 -2.251539 1.358880 0.681586 -0.769622 0.000000 0.000000 0.000000 -19.740204 -3.078055 -6.968848 1.760980 8.349340 23.780275 0.819217 4.442026 -19.269415 0.471213 -4.402112 -12.210897 0.000000 0.000000 0.000000 17.626269 5.217278 -8.925813 -2.029318 -8.926822 25.566643 -0.571717 -7.548801 -18.987622 -0.224558 3.050213 -8.418527 0.159605 2.212032 8.745986 0.272726 2.950687 4.478500 -0.067559 1.475396 -0.269546 -6.844635 -4.618599 0.480820 4.759766 -6.340618 6.853495 2.603735 -3.216015 2.534918 0.000000 0.000000 0.000000 20.745514 -31.095575 -48.357341 89.589400 -59.999334 59.644424 26.734919 19.603646 -26.050226 0.000000 0.000000 0.000000 -7.125000 0.000000 0.000000 -3.578788 58.637284 1.194335 0.000000 0.000000 0.000000 -18.375445 -28.775876 40.835814 -78.818194 -59.522063 -50.331847 -34.985778 1.166280 -19.053448 0.000000 0.000000 0.000000 7.125000 0.000000 0.000000 -4.299095 7.175504 -3.739290
-0.373903 17.948749 -2.294119 1.588105 0.909370 -0.271830 0.000000 0.000000 0.000000 -19.983235 -3.546715 -7.623834 1.769648 8.368808 23.839952 0.796330 4.517471 -19.086368 0.485823 -4.469308 -12.400844 0.000000 0.000000 0.000000 17.284253 5.510308 -9.725612 -2.085602 -9.042088 25.927123 -0.572788 -7.694810 -19.124663 -0.205151 2.916141 -8.045337 0.009660 2.119265 9.076869 0.216703 2.815062 4.537268 -0.041414 1.405630 -0.394709 -6.900461 -4.589894 0.572942 4.619693 -6.306703 7.308734 2.567878 -3.206679 2.665207 0.000000 0.000000 0.000000 21.299215 -31.049439 -48.612413 90.627136 -59.998527 60.543055 26.779022 19.753305 -26.114611 0.000000 0.000000 0.000000 -7.125000 0.000000 0.000000 -3.554239 58.715832 1.192811 0.000000 0.000000 0.000000 -19.435211 -29.159941 41.877884 -78.515387 -59.495695 -50.070898 -36.345601 -0.044074 -19.383088 0.000000 0.000000 0.000000 7.125000 0.000000 0.000000 -5.096447 6.462328 -4.508765
-0.367741 17.975367 -2.308156 1.697225 0.926983 0.018080 0.000000 0.000000 0.000000 -20.121315 -3.659390 -7.548000 1.664242 8.128635 23.105417 0.748078 4.806547 -18.778831 0.501185 -4.538331 -12.596274 0.000000 0.000000 0.000000 17.128748 5.584050 -9.735604 -1.990439 -8.846093 25.315079 -0.538310 -7.826310 -18.868769 -0.205460 2.918253 -8.051153 0.122186 2.144548 8.941087 0.098710 2.856048 4.544759 -0.223522 1.429245 -0.301016 -6.943182 -4.621038 0.551421 4.631590 -6.355764 7.726269 2.576540 -3.233585 2.816425 0.000000 0.000000 0.000000 21.836746 -31.699560 -48.498862 90.137782 -59.999919 60.119339 26.730066 19.529287 -25.901295 0.000000 0.000000 0.000000 -7.125000 0.000000 0.000000 -3.526035 58.478173 1.163198 0.000000 0.000000 0.000000 -20.430748 -30.821747 41.216944 -78.513871 -59.495555 -50.069556 -34.919048 0.251966 -19.407214 0.000000 0.000000 0.000000 7.125000 0.000000 0.000000 -4.198924 6.781153 -3.683868
-0.364100 17.995248 -2.309942 1.605196 0.946581 0.309257 0.000000 0.000000 0.000000 -20.017336 -3.806136 -7.486360 1.584457 7.940906 22.534735 0.726233 4.873081 -18.594762 0.470814 -4.400160 -12.205405 0.000000 0.000000 0.000000 17.218558 5.741889 -9.673042 -1.899881 -8.654298 24.719746 -0.488160 -8.144319 -18.606021 -0.206355 2.923978 -8.067121 0.010320 2.173240 8.828054 0.194006 2.886993 4.308013 -0.067374 1.441509 -0.494394 -6.928250 -4.714899 0.205956 4.544899 -6.453370 7.659702 2.533934 -3.279709 2.859437 0.000000 0.000000 0.000000 21.886983 -31.779912 -48.448619 89.852230 -59.999900 59.872016 26.666959 19.069965 -26.052381 0.000000 0.000000 0.000000 -7.125000 0.000000 0.000000 -3.656170 58.623558 1.218862 0.000000 0.000000 0.000000 -21.724262 -32.188380 40.684743 -79.539739 -59.582509 -50.953843 -36.827765 -1.339187 -18.755594 0.000000 0.000000 0.000000 7.125000 0.000000 0.000000 -5.507516 7.080088 -4.809815
-0.357248 18.003576 -2.315518 1.200518 0.765444 0.551109 0.000000 0.000000 0.000000 -19.536308 -3.830616 -7.699856 1.559338 7.880575 22.351843 0.728188 4.810161 -18.573457 0.449637 -4.302133 -11.928150 0.000000 0.000000 0.000000 17.672258 6.284422 -9.683827 -1.856364 -8.560220 24.429152 -0.462480 -8.416426 -18.574009 -0.198276 2.867422 -7.909805 0.603566 2.312077 8.690370 0.190025 3.117033 4.091085 -0.423098 1.563243 -0.610996 -7.076155 -4.890354 0.360078 4.803686 -6.694178 6.837450 2.647156 -3.394896 2.588301 0.000000 0.000000 0.000000 21.923607 -31.198169 -49.173512 90.086587 -60.000000 60.074943 26.370525 17.984313 -25.785131 0.000000 0.000000 0.000000 -7.125000 0.000000 0.000000 -3.884401 58.271603 1.262308 0.000000 0.000000 0.000000 -23.242740 -33.774540 39.907848 -82.263238 -59.772611 -53.304852 -35.362579 -3.628002 -18.610318 0.000000 0.000000 0.000000 7.125000 0.000000 0.000000 -4.609599 7.603136 -3.972336
-0.327215 18.000211 -2.301436 1.620477 -0.296338 0.744600 0.000000 0.000000 0.000000 -20.053492 -2.868209 -7.885944 1.514100 7.770700 22.019738 0.716691 4.946130 -18.543511 0.512853 -4.590046 -12.743101 0.000000 0.000000 0.000000 17.033777 7.096802 -10.158308 -1.946035 -8.752799 25.024971 -0.497485 -7.911916 -18.497173 -0.182571 2.751955 -7.588912 0.741935 2.630555 8.477351 0.180730 3.547983 3.989544 -0.540119 1.779661 -0.584850 -7.382457 -4.866292 0.270438 5.392428 -6.663772 5.890269 2.907694 -3.369472 2.327714 0.000000 0.000000 0.000000 22.290083 -28.291711 -50.440882 91.829526 -59.987289 61.584334 25.114898 15.401443 -25.245382 0.000000 0.000000 0.000000 -7.125000 0.000000 0.000000 -5.062327 57.417147 1.541972 0.000000 0.000000 0.000000 -25.119071 -36.685314 38.451097 -84.338883 -59.878547 -55.099316 -36.725493 -10.673004 -20.051119 0.000000 0.000000 0.000000 7.125000 0.000000 0.000000 -5.213749 5.582996 -4.701032
-0.300487 17.999507 -2.304809 2.207460 -1.873580 1.211189 0.000000 0.000000 0.000000 -20.688419 -1.602594 -8.793758 1.528437 7.805802 22.125795 0.733458 4.737650 -18.581837 0.489596 -4.486076 -12.448368 0.000000 0.000000 0.000000 16.167062 8.147869 -10.863739 -1.991917 -8.849140 25.324558 -0.524653 -7.066085 -18.059748 -0.188472 2.795994 -7.711341 1.063043 2.911632 8.366479 0.348053 3.946395 3.755576 -0.583158 1.978107 -0.749957 -6.571724 -4.574746 -0.227630 5.787918 -6.240045 4.570838 2.899537 -3.124791 1.932748 0.000000 0.000000 0.000000 23.980268 -22.197368 -52.432988 96.208197 -59.852952 65.373810 25.623933 13.948639 -25.380043 0.000000 0.000000 0.000000 -7.125000 0.000000 0.000000 -4.555342 57.673220 1.414905 0.000000 0.000000 0.000000 -26.432874 -41.164444 36.838743 -82.417240 -59.781312 -53.437955 -36.323069 -17.480032 -21.783414 0.000000 0.000000 0.000000 7.125000 0.000000 0.000000 -4.650985 3.672539 -4.358259
-0.263464 18.056307 -2.275471 2.674563 -3.848940 1.541729 0.000000 0.000000 0.000000 -21.310299 -0.597638 -8.831943 1.430714 7.563195 21.394969 0.713764 5.252236 -18.720334 0.290166 -3.463876 -9.572998 0.000000 0.000000 0.000000 15.442365 9.150177 -9.929422 -1.690952 -8.190215 23.293297 -0.495359 -6.028978 -16.861721 -0.172494 2.674865 -7.374852 2.200595 3.010232 8.226280 0.673387 4.165740 3.530454 -0.899316 2.092681 -0.843421 -5.797225 -4.286441 -0.778157 6.780154 -5.835886 3.307047 3.098868 -2.890051 1.601216 0.000000 0.000000 0.000000 26.357678 -13.490798 -55.051535 104.743465 -59.161527 72.732161 23.298818 8.784199 -24.079453 0.000000 0.000000 0.000000 -7.125000 0.000000 0.000000 -6.563002 55.805865 1.745334 0.000000 0.000000 0.000000 -26.082801 -46.355503 36.673537 -73.057801 -58.883960 -45.382900 -34.574478 -17.189978 -21.856616 0.000000 0.000000 0.000000 7.125000 0.000000 0.000000 -3.568999 4.049906 -3.314584
